<svg width="27" height="18" viewBox="0 0 27 18" fill="none" xmlns="http://www.w3.org/2000/svg">
<g clip-path="url(#clip0_104_2032)">
<path d="M13.1651 15.4456C13.1651 14.7351 13.7353 14.1649 14.4458 14.1649C15.1563 14.1649 15.7262 14.7351 15.7262 15.4456C15.7262 16.1561 15.1563 16.7262 14.4458 16.7262C13.7353 16.7262 13.1651 16.1561 13.1651 15.4456ZM18.3751 15.4456C18.3751 14.7351 18.9453 14.1649 19.6557 14.1649C20.3659 14.1649 20.9361 14.7351 20.9361 15.4456C20.9361 16.1561 20.3659 16.7262 19.6557 16.7262C18.9453 16.7262 18.3751 16.1561 18.3751 15.4456ZM6.29762 15.4456C6.29762 14.7351 6.86753 14.1649 7.57826 14.1649C8.28847 14.1649 8.85865 14.7351 8.85865 15.4456C8.85865 16.1561 8.28847 16.7262 7.57826 16.7262C6.86753 16.7262 6.29762 16.1561 6.29762 15.4456ZM1.08768 15.4456C1.08768 14.7351 1.65759 14.1649 2.36806 14.1649C3.07879 14.1649 3.64871 14.7351 3.64871 15.4456C3.64871 16.1561 3.07879 16.7262 2.36806 16.7262C1.65759 16.7262 1.08768 16.1561 1.08768 15.4456ZM11.6214 13.1826H10.5075V17.6646H11.6214V13.1826ZM3.63997 17.6646H4.75385V13.1826H3.63997V13.5423C3.26276 13.2792 2.80668 13.1302 2.31565 13.1302C1.035 13.1302 0 14.1649 0 15.4456C0 16.735 1.035 17.761 2.31565 17.761C2.80668 17.761 3.26276 17.6119 3.63997 17.3488V17.6646ZM20.9274 17.6646H22.0413V13.1826H20.9274V13.5423C20.5502 13.2792 20.0941 13.1302 19.6031 13.1302C18.3224 13.1302 17.2877 14.1649 17.2877 15.4456C17.2877 16.735 18.3224 17.761 19.6031 17.761C20.0941 17.761 20.5502 17.6119 20.9274 17.3488V17.6646ZM22.4537 16.2085C22.4886 17.1119 23.2605 17.7522 24.5499 17.7522C25.6024 17.7522 26.4706 17.2961 26.4706 16.2876C26.4706 15.5859 26.0759 15.1737 25.1637 14.9982L24.4533 14.8579C23.9972 14.7703 23.6814 14.6824 23.6814 14.4106C23.6814 14.1125 23.9884 13.981 24.3744 13.981C24.9358 13.981 25.1637 14.2616 25.1812 14.5948H26.3041C26.2427 13.7176 25.5409 13.1302 24.4096 13.1302C23.243 13.1302 22.55 13.7703 22.55 14.6036C22.55 15.6211 23.3746 15.7876 24.0851 15.9191L24.6727 16.0245C25.0936 16.1034 25.2778 16.2262 25.2778 16.4718C25.2778 16.691 25.0674 16.9102 24.5673 16.9102C23.8394 16.9102 23.6025 16.5333 23.5938 16.2085H22.4537ZM8.84991 11.6566V13.5423C8.4727 13.2792 8.01662 13.1302 7.52559 13.1302C6.24494 13.1302 5.20994 14.1649 5.20994 15.4456C5.20994 16.735 6.24494 17.761 7.52559 17.761C8.01662 17.761 8.4727 17.6119 8.84991 17.3488V17.6646H9.96379V11.6566H8.84991ZM15.7174 11.6566V13.5423C15.3402 13.2792 14.8841 13.1302 14.3931 13.1302C13.1125 13.1302 12.0777 14.1649 12.0777 15.4456C12.0777 16.735 13.1125 17.761 14.3931 17.761C14.8841 17.761 15.3402 17.6119 15.7174 17.3488V17.6646H16.8313V11.6566H15.7174ZM2.89429 10.3323L3.64871 11.6566H8.84991L6.78865 8.0955L2.89429 10.3323ZM11.6214 12.7705V11.6566H15.7174L11.3495 4.09606L7.44644 6.33256L10.5075 11.6566V12.7705H11.6214ZM17.3753 11.6566H22.5852L15.849 0L11.9549 2.24523L17.3753 11.6566Z" fill="black"/>
</g>
<defs>
<clipPath id="clip0_104_2032">
<rect width="26.4706" height="18" fill="white"/>
</clipPath>
</defs>
</svg>
