<svg width="32" height="12" viewBox="0 0 32 12" fill="none" xmlns="http://www.w3.org/2000/svg">
<path d="M16.5496 4.11603C16.5314 5.55553 17.8325 6.35878 18.8126 6.8364C19.8196 7.3264 20.1579 7.64065 20.1539 8.0789C20.1464 8.74953 19.3506 9.04553 18.606 9.05703C17.3069 9.07715 16.5515 8.70628 15.951 8.42578L15.483 10.6157C16.0855 10.8933 17.2011 11.1354 18.358 11.146C21.0736 11.146 22.8503 9.80553 22.8599 7.72715C22.8705 5.0894 19.2114 4.9434 19.2364 3.7644C19.245 3.4069 19.5861 3.0254 20.3336 2.9284C20.7036 2.8794 21.725 2.8419 22.883 3.37515L23.3375 1.2564C22.7148 1.02965 21.9144 0.812527 20.9179 0.812527C18.3619 0.812527 16.5641 2.17128 16.5496 4.11603ZM27.7048 0.995027C27.2089 0.995027 26.791 1.28428 26.6045 1.72815L22.7254 10.9904H25.439L25.979 9.49803H29.295L29.6082 10.9904H32L29.9129 0.995027H27.7048ZM28.0844 3.69515L28.8675 7.44853H26.7227L28.0844 3.69515ZM13.2595 0.995152L11.1205 10.9903H13.7064L15.8444 0.994902H13.2595M9.43412 0.994902L6.74263 7.79828L5.65387 2.01365C5.52612 1.3679 5.02163 0.995027 4.46138 0.995027H0.061625L0 1.28528C0.90325 1.48128 1.9295 1.7974 2.55125 2.13565C2.93175 2.34228 3.04025 2.5229 3.16525 3.0139L5.22738 10.9904H7.96L12.1495 0.995027H9.43412" fill="url(#paint0_linear_90_1122)"/>
<defs>
<linearGradient id="paint0_linear_90_1122" x1="14.7117" y1="11.3533" x2="15.0108" y2="0.740661" gradientUnits="userSpaceOnUse">
<stop stop-color="#222357"/>
<stop offset="1" stop-color="#254AA5"/>
</linearGradient>
</defs>
</svg>
