<svg width="32" height="20" viewBox="0 0 32 20" fill="none" xmlns="http://www.w3.org/2000/svg">
<g clip-path="url(#clip0_90_1110)">
<path d="M11.6621 2.13959H20.3059V17.8676H11.6621V2.13959Z" fill="#FF5F00"/>
<path d="M12.2111 10.0037C12.2111 6.8081 13.6929 3.97367 15.9704 2.13962C14.2966 0.805823 12.1837 0 9.87875 0C4.41787 0 0 4.4738 0 10.0037C0 15.5334 4.41787 20.0073 9.87862 20.0073C12.1836 20.0073 14.2965 19.2015 15.9704 17.8676C13.6929 16.0614 12.2111 13.1992 12.2111 10.0037Z" fill="#EB001B"/>
<path d="M31.9684 10.0037C31.9684 15.5334 27.5505 20.0073 22.0898 20.0073C19.7848 20.0073 17.6719 19.2015 15.998 17.8676C18.303 16.0337 19.7574 13.1992 19.7574 10.0037C19.7574 6.8081 18.2755 3.97367 15.998 2.13962C17.6718 0.805823 19.7848 0 22.0898 0C27.5505 0 31.9685 4.50165 31.9685 10.0037H31.9684Z" fill="#F79E1B"/>
</g>
<defs>
<clipPath id="clip0_90_1110">
<rect width="32" height="20" fill="white"/>
</clipPath>
</defs>
</svg>
