<?xml version="1.0" standalone="no"?>
<!DOCTYPE svg PUBLIC "-//W3C//DTD SVG 20010904//EN"
 "http://www.w3.org/TR/2001/REC-SVG-20010904/DTD/svg10.dtd">
<svg version="1.0" xmlns="http://www.w3.org/2000/svg"
 width="500.000000pt" height="500.000000pt" viewBox="0 0 500.000000 500.000000"
 preserveAspectRatio="xMidYMid meet">

<g transform="translate(0.000000,500.000000) scale(0.100000,-0.100000)"
fill="#000000" stroke="none">
<path d="M1836 4855 c-97 -51 -310 -169 -1346 -738 -190 -104 -373 -204 -406
-223 -67 -37 -91 -73 -79 -121 4 -18 101 -123 281 -303 l274 -275 -277 -277
c-274 -274 -278 -278 -278 -319 0 -32 6 -46 27 -64 15 -13 148 -89 297 -170
l271 -147 0 -517 c0 -448 2 -519 15 -538 9 -13 44 -38 78 -57 34 -18 168 -92
297 -164 129 -71 381 -209 560 -307 179 -98 456 -250 615 -338 254 -141 296
-161 335 -161 39 0 81 20 335 161 160 88 436 240 615 338 179 98 431 236 560
307 129 72 263 146 297 164 34 19 69 44 78 57 13 19 15 90 15 538 l0 517 265
143 c146 79 280 156 298 170 26 22 32 33 32 68 0 41 -4 45 -278 319 l-277 277
274 275 c188 188 277 284 282 304 12 49 -18 87 -99 131 -40 21 -189 104 -332
183 -283 158 -312 167 -360 122 -58 -55 -36 -122 57 -173 34 -19 155 -85 268
-147 113 -62 207 -114 210 -117 5 -4 -442 -453 -452 -453 -6 0 -462 248 -718
390 -52 29 -239 132 -415 228 -176 96 -360 197 -409 225 l-88 50 223 223 c123
123 229 224 234 224 6 0 110 -55 231 -121 250 -138 292 -152 338 -106 18 18
26 37 26 60 0 66 -4 69 -403 286 -181 98 -203 107 -239 96 -13 -4 -146 -129
-296 -278 l-272 -272 -268 267 c-147 146 -277 271 -289 277 -33 17 -55 14
-107 -14z m283 -419 l223 -223 -91 -52 c-50 -28 -236 -130 -413 -227 -178 -97
-336 -184 -353 -194 -65 -39 -767 -420 -773 -420 -10 0 -457 449 -452 453 3 3
99 56 215 119 116 64 323 177 460 253 138 75 399 218 580 317 182 99 334 184
340 189 5 5 16 9 25 9 8 0 116 -101 239 -224z m538 -442 c160 -87 515 -282
1103 -606 179 -99 329 -183 333 -187 5 -5 -56 -43 -135 -86 -79 -43 -267 -146
-418 -230 -151 -84 -331 -183 -400 -220 -69 -37 -238 -130 -376 -206 -138 -77
-257 -139 -264 -139 -7 0 -81 38 -164 84 -83 46 -311 171 -506 278 -195 107
-485 266 -643 353 -159 87 -285 161 -280 166 8 8 305 173 613 341 383 209 898
492 935 514 22 13 41 23 42 24 1 0 73 -39 160 -86z m-1707 -1046 c74 -42 216
-119 315 -173 99 -54 284 -155 410 -225 127 -70 316 -174 420 -230 105 -57
203 -111 218 -121 l28 -17 -227 -226 c-125 -124 -228 -226 -229 -226 -3 0
-424 230 -705 385 -522 287 -906 498 -914 503 -4 2 94 107 220 233 l228 228
51 -28 c27 -16 111 -62 185 -103z m3564 -97 l228 -228 -309 -170 c-449 -248
-795 -439 -1072 -590 l-244 -133 -146 142 c-80 79 -183 181 -228 228 l-82 86
172 94 c95 52 296 162 447 245 151 84 379 208 505 277 190 104 500 276 500
278 0 0 103 -103 229 -229z m-3389 -923 c165 -91 400 -220 522 -287 169 -93
231 -123 258 -123 42 0 40 -2 370 330 116 117 217 212 225 212 7 0 134 -121
282 -269 185 -184 278 -270 296 -274 38 -7 48 -2 444 216 194 107 427 235 518
285 l165 91 3 -417 c1 -228 -1 -419 -5 -423 -8 -7 -182 -104 -703 -390 -532
-291 -894 -489 -897 -489 -1 0 -4 232 -5 515 l-3 515 -28 27 c-38 38 -96 38
-134 0 l-28 -27 -3 -515 c-1 -283 -4 -515 -5 -515 -4 0 -912 497 -1372 751
l-230 127 -3 421 c-2 400 -1 421 15 412 10 -5 153 -83 318 -173z"/>
<path d="M2447 1789 c-11 -6 -25 -26 -33 -45 -20 -48 1 -99 51 -119 31 -14 39
-14 70 0 50 20 71 71 51 119 -8 19 -23 39 -34 45 -26 14 -81 14 -105 0z"/>
<path d="M3913 4396 c-109 -49 -34 -212 77 -166 34 14 63 69 54 104 -14 55
-77 85 -131 62z"/>
</g>
</svg>
