<svg width="31" height="11" viewBox="0 0 31 11" fill="none" xmlns="http://www.w3.org/2000/svg">
<path d="M30.7708 0L8.2593 9.58623C6.39231 10.3761 4.82453 10.771 3.55594 10.771C2.1198 10.771 1.0786 10.2684 0.432338 9.2631C0.0254316 8.61683 -0.0942466 7.79704 0.0733029 6.80371C0.240852 5.81038 0.683662 4.75123 1.40173 3.62625C2.00012 2.7167 2.98148 1.51991 4.34582 0.0359034C3.8671 0.801844 3.532 1.59172 3.34052 2.40553C2.98148 3.93741 3.30462 5.06239 4.30991 5.78046C4.78863 6.11556 5.44686 6.28311 6.2846 6.28311C6.9548 6.28311 7.70878 6.1754 8.54652 5.95998L30.7708 0Z" fill="#111111"/>
</svg>
