<svg width="24" height="18" viewBox="0 0 24 18" fill="none" xmlns="http://www.w3.org/2000/svg">
<path d="M23.2002 0.25157C22.7945 -0.267024 22.0857 0.147949 21.7734 0.329408C19.5506 1.63903 19.2227 3.94497 18.4487 5.26919C17.8392 6.32876 16.8414 7.10762 15.9389 7.16795C15.271 7.21562 14.5471 7.0867 13.8286 6.77389C12.0709 6.014 11.1237 5.03081 10.8931 4.85714C10.4198 4.49762 6.77791 0.950651 3.81035 0.806165C3.81035 0.806165 3.4484 0.0764351 3.35791 0.0637865C3.14143 0.0389757 2.9191 0.502597 2.75808 0.551246C2.61213 0.602327 2.35673 0.0530838 2.20835 0.0769216C2.05948 0.097354 1.915 0.647084 1.62505 0.930705C1.41148 1.13746 1.1517 1.12433 1.00478 1.38119C0.954185 1.4746 0.971698 1.63903 0.914293 1.78984C0.791212 2.10168 0.378185 2.13427 0.374293 2.468C0.374293 2.8387 0.721644 2.90925 1.02521 3.16757C1.26651 3.37433 1.28305 3.52027 1.56473 3.61708C1.81527 3.7027 2.17964 3.43514 2.50267 3.53097C2.7717 3.61027 3.03051 3.6667 3.0884 3.94254C3.14094 4.19211 3.0884 4.58276 2.75662 4.53897C2.64862 4.52438 2.17575 4.36968 1.59148 4.43195C0.886077 4.50687 0.0809416 4.7326 0.00213083 5.51195C-0.0382475 5.94735 0.502239 6.4567 1.02862 6.35503C1.38959 6.28546 1.21932 5.86222 1.41635 5.65789C1.67662 5.3947 3.14094 6.57638 4.50262 6.57638C5.07959 6.57638 5.50624 6.43043 5.93045 5.98773C5.9684 5.96 6.02045 5.88897 6.08126 5.88168C6.13624 5.88897 6.23889 5.94395 6.271 5.96681C7.37143 6.83908 8.20089 8.59335 12.2353 8.61378C12.8016 8.62059 13.4506 8.88524 13.9823 9.3693C14.4493 9.79059 14.7256 10.4644 14.9918 11.145C15.3985 12.1695 16.1214 13.1585 17.2218 14.2619C17.2797 14.3276 18.185 15.0213 18.2527 15.0724C18.2648 15.0826 18.3344 15.2349 18.3042 15.3205C18.2853 15.9918 18.185 17.9183 19.6328 17.9991C19.9885 18.0185 19.8999 17.7738 19.8999 17.6002C19.895 17.2679 19.8372 16.9332 20.0099 16.5883C20.2565 16.1227 19.4986 15.8984 19.5151 14.8792C19.5331 14.1169 18.887 14.2458 18.5572 13.664C18.3719 13.3298 18.1992 13.1459 18.2172 12.7426C18.2877 10.4269 17.7141 8.9013 17.4339 8.53254C17.2126 8.24697 17.0219 8.14043 17.2325 8.00811C18.4395 7.21416 18.7163 6.47568 18.7163 6.47568C19.3585 4.97681 19.9383 3.61027 20.7352 3.00314C20.8967 2.88589 21.3078 2.57503 21.5637 2.45827C22.3066 2.10557 22.705 1.89589 22.9147 1.69157C23.2606 1.36319 23.532 0.666543 23.2002 0.25157Z" fill="black"/>
</svg>
